<svg data-v-423bf9ae="" xmlns="http://www.w3.org/2000/svg" viewBox="0 0 334 90" class="iconLeft"><!----><!----><!----><g data-v-423bf9ae="" id="714c87ff-863c-42e4-9302-4e1c1e36f7f9" fill="black" transform="matrix(4.905968729932779,0,0,4.905968729932779,104.9563975580233,15.049060395782988)"><path d="M4.89 10.65L4.89 10.65L4.89 10.65Q4.02 10.65 3.31 10.39L3.31 10.39L3.31 10.39Q2.60 10.12 2.11 9.65L2.11 9.65L2.11 9.65Q1.61 9.18 1.34 8.55L1.34 8.55L1.34 8.55Q1.06 7.91 1.06 7.18L1.06 7.18L1.06 1.36L3.01 1.36L3.01 7.29L3.01 7.29Q3.01 7.66 3.09 7.99L3.09 7.99L3.09 7.99Q3.16 8.32 3.37 8.57L3.37 8.57L3.37 8.57Q3.57 8.82 3.93 8.97L3.93 8.97L3.93 8.97Q4.30 9.11 4.89 9.11L4.89 9.11L4.89 9.11Q5.47 9.11 5.82 8.96L5.82 8.96L5.82 8.96Q6.17 8.81 6.37 8.55L6.37 8.55L6.37 8.55Q6.57 8.29 6.63 7.95L6.63 7.95L6.63 7.95Q6.69 7.60 6.69 7.24L6.69 7.24L6.69 1.36L8.62 1.36L8.62 7.18L8.62 7.18Q8.62 7.91 8.37 8.55L8.37 8.55L8.37 8.55Q8.12 9.18 7.64 9.65L7.64 9.65L7.64 9.65Q7.15 10.12 6.46 10.39L6.46 10.39L6.46 10.39Q5.77 10.65 4.89 10.65ZM14.92 3.12L14.92 3.12L14.92 3.12Q15.57 3.12 16.03 3.34L16.03 3.34L16.03 3.34Q16.49 3.56 16.79 3.93L16.79 3.93L16.79 3.93Q17.09 4.31 17.23 4.83L17.23 4.83L17.23 4.83Q17.37 5.35 17.37 5.95L17.37 5.95L17.37 10.50L15.50 10.50L15.50 6.58L15.50 6.58Q15.50 5.54 15.22 5.05L15.22 5.05L15.22 5.05Q14.94 4.56 14.25 4.56L14.25 4.56L14.25 4.56Q13.43 4.56 13.03 5.25L13.03 5.25L13.03 5.25Q12.63 5.94 12.63 7.06L12.63 7.06L12.63 10.50L10.75 10.50L10.75 3.29L12.15 3.29L12.53 4.27L12.53 4.27Q12.67 4.12 12.84 3.91L12.84 3.91L12.84 3.91Q13.01 3.71 13.27 3.54L13.27 3.54L13.27 3.54Q13.52 3.36 13.92 3.24L13.92 3.24L13.92 3.24Q14.32 3.12 14.92 3.12ZM21.17 10.50L19.28 10.50L19.28 3.29L21.17 3.29L21.17 10.50ZM21.27 1.02L21.27 1.02L21.27 1.02Q21.27 1.47 20.96 1.78L20.96 1.78L20.96 1.78Q20.65 2.09 20.22 2.09L20.22 2.09L20.22 2.09Q19.77 2.09 19.46 1.78L19.46 1.78L19.46 1.78Q19.15 1.47 19.15 1.02L19.15 1.02L19.15 1.02Q19.15 0.59 19.46 0.29L19.46 0.29L19.46 0.29Q19.77-0.01 20.22-0.01L20.22-0.01L20.22-0.01Q20.65-0.01 20.96 0.29L20.96 0.29L20.96 0.29Q21.27 0.59 21.27 1.02ZM25.75 10.65L25.75 10.65L25.75 10.65Q24.92 10.65 24.35 10.35L24.35 10.35L24.35 10.35Q23.77 10.04 23.41 9.51L23.41 9.51L23.41 9.51Q23.06 8.99 22.90 8.29L22.90 8.29L22.90 8.29Q22.74 7.60 22.74 6.85L22.74 6.85L22.74 6.85Q22.74 6.09 22.90 5.41L22.90 5.41L22.90 5.41Q23.06 4.73 23.41 4.23L23.41 4.23L23.41 4.23Q23.77 3.72 24.35 3.42L24.35 3.42L24.35 3.42Q24.92 3.12 25.75 3.12L25.75 3.12L25.75 3.12Q26.33 3.12 26.76 3.30L26.76 3.30L26.76 3.30Q27.19 3.47 27.47 3.68L27.47 3.68L27.47 3.68Q27.79 3.93 28 4.24L28 4.24L28.36 3.29L29.82 3.29L29.82 12.22L27.94 12.22L27.94 9.56L27.94 9.56Q27.71 9.87 27.38 10.11L27.38 10.11L27.38 10.11Q27.10 10.32 26.69 10.49L26.69 10.49L26.69 10.49Q26.28 10.65 25.75 10.65ZM26.33 4.59L26.33 4.59L26.33 4.59Q26.00 4.59 25.70 4.72L25.70 4.72L25.70 4.72Q25.41 4.86 25.19 5.14L25.19 5.14L25.19 5.14Q24.98 5.42 24.84 5.84L24.84 5.84L24.84 5.84Q24.71 6.27 24.71 6.85L24.71 6.85L24.71 6.85Q24.71 7.42 24.84 7.86L24.84 7.86L24.84 7.86Q24.98 8.30 25.19 8.60L25.19 8.60L25.19 8.60Q25.41 8.89 25.70 9.04L25.70 9.04L25.70 9.04Q26.00 9.20 26.33 9.20L26.33 9.20L26.33 9.20Q27.01 9.20 27.48 8.60L27.48 8.60L27.48 8.60Q27.94 7.99 27.94 6.85L27.94 6.85L27.94 6.85Q27.94 5.68 27.48 5.14L27.48 5.14L27.48 5.14Q27.01 4.59 26.33 4.59ZM34.34 10.65L34.34 10.65L34.34 10.65Q33.68 10.65 33.20 10.49L33.20 10.49L33.20 10.49Q32.72 10.32 32.40 9.93L32.40 9.93L32.40 9.93Q32.07 9.55 31.91 8.94L31.91 8.94L31.91 8.94Q31.75 8.33 31.75 7.45L31.75 7.45L31.75 3.29L33.63 3.29L33.63 7.20L33.63 7.20Q33.63 8.23 33.91 8.71L33.91 8.71L33.91 8.71Q34.19 9.20 34.87 9.20L34.87 9.20L34.87 9.20Q35.70 9.20 36.10 8.52L36.10 8.52L36.10 8.52Q36.50 7.84 36.50 6.72L36.50 6.72L36.50 3.29L38.37 3.29L38.37 10.50L36.95 10.50L36.57 9.51L36.57 9.51Q36.57 9.51 36.43 9.68L36.43 9.68L36.43 9.68Q36.29 9.86 36.01 10.07L36.01 10.07L36.01 10.07Q35.73 10.29 35.31 10.47L35.31 10.47L35.31 10.47Q34.90 10.65 34.34 10.65ZM43.79 10.65L43.79 10.65L43.79 10.65Q42.63 10.65 41.87 10.35L41.87 10.35L41.87 10.35Q41.12 10.04 40.66 9.52L40.66 9.52L40.66 9.52Q40.21 9.00 40.03 8.32L40.03 8.32L40.03 8.32Q39.84 7.64 39.84 6.89L39.84 6.89L39.84 6.89Q39.84 6.22 40.03 5.54L40.03 5.54L40.03 5.54Q40.21 4.87 40.61 4.33L40.61 4.33L40.61 4.33Q41.01 3.79 41.65 3.46L41.65 3.46L41.65 3.46Q42.29 3.12 43.22 3.12L43.22 3.12L43.22 3.12Q44.20 3.12 44.85 3.46L44.85 3.46L44.85 3.46Q45.50 3.79 45.89 4.33L45.89 4.33L45.89 4.33Q46.28 4.87 46.45 5.54L46.45 5.54L46.45 5.54Q46.61 6.22 46.61 6.89L46.61 6.89L46.61 7.52L41.65 7.52L41.65 7.52Q41.65 8.27 42.19 8.76L42.19 8.76L42.19 8.76Q42.73 9.25 43.67 9.25L43.67 9.25L43.67 9.25Q44.20 9.25 44.65 9.14L44.65 9.14L44.65 9.14Q45.09 9.03 45.42 8.89L45.42 8.89L45.42 8.89Q45.78 8.74 46.09 8.53L46.09 8.53L46.09 10.09L46.09 10.09Q46.09 10.11 45.91 10.19L45.91 10.19L45.91 10.19Q45.72 10.28 45.42 10.38L45.42 10.38L45.42 10.38Q45.11 10.49 44.69 10.57L44.69 10.57L44.69 10.57Q44.27 10.65 43.79 10.65ZM41.65 6.19L44.83 6.19L44.83 6.19Q44.83 5.95 44.77 5.66L44.77 5.66L44.77 5.66Q44.70 5.38 44.53 5.12L44.53 5.12L44.53 5.12Q44.35 4.87 44.04 4.70L44.04 4.70L44.04 4.70Q43.72 4.54 43.22 4.54L43.22 4.54L43.22 4.54Q42.78 4.54 42.48 4.70L42.48 4.70L42.48 4.70Q42.18 4.87 42 5.12L42 5.12L42 5.12Q41.82 5.38 41.73 5.66L41.73 5.66L41.73 5.66Q41.65 5.95 41.65 6.19L41.65 6.19Z"></path></g><!----><g data-v-423bf9ae="" id="a329e663-9e52-4d23-adec-af99217023bd" transform="matrix(1.889760600815611,0,0,1.889760600815611,-4.147945613084346,-1.8897607068833366)" stroke="none" fill="black"><path d="M9.381 9.009a42.33 42.33 0 0 1 2.794-1.474 38.173 38.173 0 0 1 3.926-1.619c.42-.146.836-.281 1.248-.405.414-.125.82-.238 1.227-.346a31.589 31.589 0 0 1 3.564-.712 29.837 29.837 0 0 1 3.464-.274 29.64 29.64 0 0 1 4.612.274c.389.054.78.115 1.174.187a31.255 31.255 0 0 1 3.62.87 34.118 34.118 0 0 1 2.525.875 37.056 37.056 0 0 1 2.649 1.15 40.39 40.39 0 0 1 2.793 1.474 44.8 44.8 0 0 1 2.11 1.292 24.028 24.028 0 0 0-1.653-1.923 41.047 41.047 0 0 0-2.426-1.929 35.998 35.998 0 0 0-2.655-1.775 29.649 29.649 0 0 0-2.506-1.356A25.173 25.173 0 0 0 32.3 1.929a20.199 20.199 0 0 0-1.14-.312 21.823 21.823 0 0 0-1.123-.247 22.12 22.12 0 0 0-1.111-.181 18.24 18.24 0 0 0-1.104-.12 20.14 20.14 0 0 0-.886-.05c-.071-.002-.143-.01-.213-.012-.082-.002-.162.001-.242 0-.102-.001-.201-.007-.302-.007-.104 0-.203.006-.305.007-.081.001-.163-.002-.245 0-.069.002-.144.009-.211.012a18.825 18.825 0 0 0-1.99.17 20.702 20.702 0 0 0-2.236.428 22.103 22.103 0 0 0-2.297.697 26.24 26.24 0 0 0-2.389 1.004c-.408.194-.818.403-1.236.63a30.9 30.9 0 0 0-2.576 1.556c-.442.295-.893.609-1.346.944-.459.334-.92.689-1.391 1.068-.341.274-.686.563-1.034.861a23.92 23.92 0 0 0-1.656 1.925c.217-.141.437-.28.649-.415.499-.31.987-.602 1.465-.878z"></path><path d="M6.181 14.005c.498-.174.989-.338 1.478-.495.485-.157.966-.306 1.44-.446.475-.142.94-.274 1.403-.399a59.649 59.649 0 0 1 4.033-.958c.437-.088.864-.17 1.29-.248a75.024 75.024 0 0 1 2.521-.401 71.289 71.289 0 0 1 2.453-.279c.403-.038.807-.071 1.206-.102a59.77 59.77 0 0 1 3.577-.147c.395-.003.791-.004 1.188 0a60.07 60.07 0 0 1 3.578.147 56.3 56.3 0 0 1 2.428.229c.408.047.82.098 1.232.152.416.058.831.119 1.252.187a59.205 59.205 0 0 1 5.221 1.062c.453.112.91.232 1.373.359a66.69 66.69 0 0 1 5.865 1.899 23.661 23.661 0 0 0-1.185-2.169c-.11-.055-.224-.11-.333-.163a52.162 52.162 0 0 0-5.764-2.407 47.265 47.265 0 0 0-5.236-1.485 40.045 40.045 0 0 0-1.248-.254 45.022 45.022 0 0 0-3.64-.53 42.759 42.759 0 0 0-4.73-.205 46.754 46.754 0 0 0-2.363.102 38.308 38.308 0 0 0-2.388.243 42.703 42.703 0 0 0-4.958.943 45.598 45.598 0 0 0-2.615.74c-.445.14-.896.288-1.352.447-.455.158-.917.326-1.385.503a48.901 48.901 0 0 0-2.879 1.198 53.439 53.439 0 0 0-1.832.87 23.165 23.165 0 0 0-1.186 2.167l.024-.011a87.768 87.768 0 0 1 1.532-.549z"></path><path d="M5.706 18.575a123.694 123.694 0 0 1 5.777-.824 108.68 108.68 0 0 1 2.715-.294 106.707 106.707 0 0 1 2.623-.227c.431-.032.859-.062 1.283-.091.427-.027.849-.054 1.271-.077.42-.022.838-.044 1.256-.062.413-.02.83-.037 1.243-.05.413-.016.826-.026 1.236-.037.41-.01.82-.019 1.229-.024.409-.005.818-.01 1.228-.012.408-.001.816-.001 1.226 0 .408.002.815.007 1.228.012l1.229.024c.411.011.823.021 1.235.037a135.282 135.282 0 0 1 2.5.112c.422.023.845.05 1.27.077a148.983 148.983 0 0 1 2.586.196 115.974 115.974 0 0 1 2.666.26c.453.049.908.102 1.372.156a121.09 121.09 0 0 1 4.284.585 130.382 130.382 0 0 1 3.024.503c.379.068.771.142 1.156.213a23.228 23.228 0 0 0-.689-2.265 79.132 79.132 0 0 0-2.855-.736 94.008 94.008 0 0 0-4.327-.923 92.289 92.289 0 0 0-2.735-.464 77.272 77.272 0 0 0-3.914-.507 87.544 87.544 0 0 0-2.52-.229 92.26 92.26 0 0 0-1.24-.084 86.414 86.414 0 0 0-6.101-.134 71.45 71.45 0 0 0-2.439.072c-.407.018-.818.039-1.23.062a88.747 88.747 0 0 0-2.49.188 83.691 83.691 0 0 0-2.552.27c-.433.054-.866.109-1.306.168a101.241 101.241 0 0 0-2.68.412 75.713 75.713 0 0 0-2.789.522 85.145 85.145 0 0 0-5.774 1.383 23.422 23.422 0 0 0-.689 2.265c.387-.072.775-.146 1.156-.213.521-.093 1.033-.181 1.537-.264zM4.847 23.569c.51-.017 1.014-.032 1.51-.047.498-.016.99-.03 1.479-.044.482-.014.966-.025 1.441-.038.478-.013.949-.023 1.414-.033.469-.011.93-.022 1.389-.031.456-.011.911-.018 1.363-.026.447-.01.895-.018 1.338-.024.441-.008.883-.016 1.318-.021l1.301-.019c.432-.005.857-.011 1.283-.018l1.271-.013 1.261-.011 1.248-.008 1.244-.006c.414-.003.827-.003 1.236-.004l1.238-.001 1.235.001c.412.001.825.001 1.239.004l1.242.006 1.25.008 1.259.011 1.271.013c.426.007.854.013 1.283.018l1.303.019 1.317.022 1.338.024c.452.01.905.017 1.363.026.458.009.92.021 1.388.031.467.01.938.021 1.416.034.475.013.955.023 1.441.038.486.014.978.027 1.476.043.498.015 1.002.03 1.513.047.508.017 1.022.032 1.547.052.317.011.645.022.972.035a24.075 24.075 0 0 0-.233-2.311c-.363-.041-.729-.081-1.088-.118-.527-.056-1.052-.106-1.566-.157a214.035 214.035 0 0 0-5.916-.495c-.472-.033-.94-.063-1.403-.093a177.342 177.342 0 0 0-2.729-.156c-.447-.023-.893-.043-1.332-.063-.441-.02-.879-.038-1.315-.054a288.794 288.794 0 0 0-2.584-.084c-.427-.011-.851-.021-1.273-.029s-.847-.017-1.267-.021a177.004 177.004 0 0 0-2.516-.024 262.086 262.086 0 0 0-2.513.008 265.82 265.82 0 0 0-2.525.037l-1.274.029c-.427.012-.854.024-1.286.039a204.457 204.457 0 0 0-2.613.1c-.439.021-.885.04-1.332.063-.447.022-.898.047-1.354.073-.455.024-.912.054-1.377.083a186.781 186.781 0 0 0-2.834.197c-.48.037-.969.075-1.461.116-.493.042-.991.084-1.495.13-.502.045-1.013.093-1.529.144l-1.565.157a124.3 124.3 0 0 0-1.09.118 24.644 24.644 0 0 0-.229 2.31c.324-.013.651-.024.972-.035.512-.02 1.031-.036 1.54-.052zM49.062 26.003c-.521.02-1.037.035-1.545.052-.512.018-1.016.032-1.513.047-.499.016-.989.028-1.478.043-.485.015-.967.026-1.44.039-.479.013-.95.022-1.416.034-.468.013-.93.021-1.388.031-.458.011-.913.019-1.363.027-.449.009-.895.018-1.338.023-.443.009-.883.015-1.318.021l-1.302.02-1.282.016c-.426.006-.85.01-1.271.014l-1.261.011-1.25.009-1.242.005c-.414.003-.827.003-1.239.004l-1.235.001-1.238-.001c-.409-.001-.822-.001-1.236-.004l-1.244-.005c-.414-.004-.831-.006-1.25-.009l-1.259-.011c-.421-.004-.845-.008-1.271-.014L17.4 26.34l-1.301-.02c-.437-.008-.875-.014-1.318-.021l-1.338-.023c-.453-.01-.905-.018-1.363-.027l-1.389-.031c-.465-.012-.938-.021-1.414-.034s-.959-.024-1.441-.039c-.488-.015-.98-.027-1.479-.043-.498-.015-1-.029-1.51-.047-.509-.017-1.025-.032-1.547-.052-.32-.011-.648-.022-.974-.035.032.78.106 1.549.216 2.309l1.105.12c.529.055 1.053.106 1.566.157.518.052 1.027.098 1.529.145.504.046 1.002.088 1.494.13.492.041.98.08 1.462.116.483.037.959.069 1.431.104.473.033.939.065 1.403.094.465.029.922.059 1.377.084.455.024.907.051 1.354.072.446.021.891.044 1.332.062.44.021.879.038 1.315.055.435.017.868.032 1.297.047.433.014.858.026 1.286.038.426.012.852.021 1.275.028.422.01.844.017 1.265.022.42.005.84.012 1.259.016l1.258.008h1.256l1.254-.008c.42-.004.84-.011 1.26-.016l1.268-.022c.423-.008.848-.018 1.273-.028.429-.012.854-.024 1.285-.038.431-.015.863-.03 1.299-.047a215.038 215.038 0 0 0 2.646-.119c.447-.021.899-.046 1.355-.07.453-.025.912-.056 1.375-.084s.933-.061 1.404-.094c.471-.034.948-.067 1.43-.104.482-.036.968-.075 1.462-.116.493-.042.989-.084 1.495-.13.504-.047 1.013-.093 1.529-.145.515-.051 1.039-.104 1.565-.159.364-.037.735-.078 1.106-.118.106-.761.183-1.527.217-2.309l-.967.035zM46.655 31.05c-.506.082-1.002.163-1.494.238-.492.076-.979.146-1.46.216a161.872 161.872 0 0 1-2.823.369 169.796 169.796 0 0 1-2.717.293 110.046 110.046 0 0 1-2.623.227c-.432.032-.859.062-1.284.091s-.849.054-1.269.075c-.42.023-.838.046-1.258.063-.416.019-.83.036-1.242.052l-1.236.036c-.412.009-.82.018-1.23.023a100.386 100.386 0 0 1-2.454.013c-.407-.002-.816-.006-1.227-.013l-1.23-.023-1.235-.036c-.413-.016-.83-.033-1.245-.052-.416-.02-.834-.038-1.254-.063a119.364 119.364 0 0 1-5.177-.393 86.661 86.661 0 0 1-1.345-.139c-.453-.049-.908-.102-1.371-.154-.461-.056-.926-.112-1.396-.176-.471-.062-.946-.126-1.428-.194a112.412 112.412 0 0 1-2.954-.453c-.504-.086-1.016-.173-1.531-.267-.391-.069-.79-.145-1.191-.218.189.768.414 1.521.675 2.258a83.34 83.34 0 0 0 2.908.749 88.104 88.104 0 0 0 5.705 1.169c.457.078.906.149 1.354.22a78.753 78.753 0 0 0 2.632.362 76.38 76.38 0 0 0 2.551.269c.42.039.838.074 1.252.104.416.029.828.06 1.239.082.412.023.823.048 1.231.063.408.021.813.034 1.221.046a82.29 82.29 0 0 0 3.649.027c.403-.005.81-.016 1.217-.027.406-.013.812-.025 1.223-.046.408-.017.814-.04 1.229-.063.412-.022.826-.053 1.24-.082.416-.03.832-.065 1.254-.104a85.345 85.345 0 0 0 3.855-.438c.438-.062.881-.124 1.327-.193a88.1 88.1 0 0 0 9.97-2.138c.26-.737.482-1.49.672-2.258l-1.191.218c-.524.094-1.034.182-1.539.267z"></path><path d="M46.183 35.618c-.5.176-.992.34-1.479.496-.487.157-.967.306-1.441.445-.474.143-.94.273-1.406.399a57.543 57.543 0 0 1-2.715.677 63.628 63.628 0 0 1-3.877.743c-.42.066-.836.127-1.252.186a51.002 51.002 0 0 1-2.453.279c-.401.038-.806.071-1.207.103-.4.027-.802.055-1.197.073a52.303 52.303 0 0 1-2.381.074c-.396.004-.791.004-1.188 0-.396-.005-.791-.014-1.188-.023a79.418 79.418 0 0 1-1.19-.049c-.397-.021-.797-.048-1.197-.075a77.8 77.8 0 0 1-2.429-.228c-.407-.048-.818-.1-1.232-.156s-.83-.116-1.25-.184c-.42-.066-.844-.137-1.271-.215a70.628 70.628 0 0 1-2.605-.528 73.748 73.748 0 0 1-1.344-.319 63.63 63.63 0 0 1-4.217-1.202 69.334 69.334 0 0 1-2.997-1.043c-.034-.015-.067-.026-.103-.04.347.732.724 1.445 1.14 2.137l.452.226c.51.247 1.01.481 1.503.704.493.225.979.434 1.46.632a49.176 49.176 0 0 0 5.476 1.909 45.655 45.655 0 0 0 3.812.901 41.753 41.753 0 0 0 2.442.389 38.618 38.618 0 0 0 3.57.311c.396.017.787.028 1.18.033.391.007.784.007 1.178 0 .393-.005.785-.018 1.178-.033.395-.018.787-.039 1.183-.067a37.217 37.217 0 0 0 2.387-.244c.403-.051.808-.109 1.213-.175.408-.064.817-.136 1.229-.214a40.6 40.6 0 0 0 2.517-.555 49.816 49.816 0 0 0 2.617-.739 52.958 52.958 0 0 0 4.156-1.514 56.248 56.248 0 0 0 3.413-1.564c.416-.69.794-1.403 1.139-2.137-.033.014-.066.025-.1.04-.522.191-1.028.374-1.526.547z"></path><path d="M42.979 40.615a44.62 44.62 0 0 1-1.416.78c-.467.245-.926.478-1.379.693a38.173 38.173 0 0 1-3.922 1.62 33.579 33.579 0 0 1-3.683 1.039 30.667 30.667 0 0 1-4.676.652 31.99 31.99 0 0 1-1.148.045c-.383.008-.765.008-1.146 0a27.484 27.484 0 0 1-1.15-.045 28.034 28.034 0 0 1-2.316-.23 30.768 30.768 0 0 1-3.564-.711 32.287 32.287 0 0 1-2.477-.75 33.192 33.192 0 0 1-1.276-.47 39.91 39.91 0 0 1-1.308-.538 37.772 37.772 0 0 1-2.717-1.305 43.826 43.826 0 0 1-2.879-1.656c-.287-.184-.581-.371-.876-.563.362.484.749.949 1.146 1.405l.334.32c.486.427.967.826 1.438 1.206.471.377.932.732 1.391 1.068.453.335.902.647 1.346.943.439.296.876.572 1.306.831a29.56 29.56 0 0 0 2.507 1.357 26.7 26.7 0 0 0 2.389 1.003 21.838 21.838 0 0 0 5.636 1.247c.366.03.733.05 1.098.061a19.418 19.418 0 0 0 2.196-.061c.366-.028.733-.069 1.104-.12a22.893 22.893 0 0 0 3.373-.74 24.932 24.932 0 0 0 3.547-1.39 30.154 30.154 0 0 0 2.506-1.357c.431-.259.865-.535 1.308-.831a38.597 38.597 0 0 0 2.738-2.011c.47-.38.949-.779 1.438-1.206.12-.115.23-.222.336-.322.396-.456.78-.919 1.143-1.403-.293.192-.586.381-.877.563-.505.308-.992.599-1.47.876z"></path></g><!----></svg>