<svg data-v-423bf9ae="" xmlns="http://www.w3.org/2000/svg" viewBox="0 0 260 112" class="iconLeft"><!----><!----><!----><g data-v-423bf9ae="" id="0ae1d958-0458-437a-a683-8ff1cfc95ed7" fill="white" transform="matrix(4.784689009770447,0,0,4.784689009770447,82.03740066541843,15.173340111044148)"><path d="M2.73 12.46L2.73 12.46Q1.82 12.46 1.29 11.89L1.29 11.89L1.29 11.89Q0.77 11.33 0.77 10.09L0.77 10.09L0.77 4.93L2.45 4.93L2.45 9.63L2.45 9.63Q2.45 10.33 2.69 10.63L2.69 10.63L2.69 10.63Q2.93 10.93 3.42 10.93L3.42 10.93L3.42 10.93Q3.91 10.93 4.24 10.52L4.24 10.52L4.24 10.52Q4.56 10.11 4.56 9.49L4.56 9.49L4.56 4.93L6.24 4.93L6.24 12.29L4.84 12.29L4.68 11.38L4.59 11.38L4.59 11.38Q4.27 11.86 3.81 12.16L3.81 12.16L3.81 12.16Q3.35 12.46 2.73 12.46L2.73 12.46ZM7.78 12.29L7.78 4.93L9.18 4.93L9.35 5.84L9.44 5.84L9.44 5.84Q9.76 5.36 10.22 5.06L10.22 5.06L10.22 5.06Q10.68 4.76 11.30 4.76L11.30 4.76L11.30 4.76Q12.21 4.76 12.73 5.33L12.73 5.33L12.73 5.33Q13.26 5.89 13.26 7.13L13.26 7.13L13.26 12.29L11.58 12.29L11.58 7.59L11.58 7.59Q11.58 6.90 11.33 6.59L11.33 6.59L11.33 6.59Q11.09 6.29 10.61 6.29L10.61 6.29L10.61 6.29Q10.12 6.29 9.79 6.71L9.79 6.71L9.79 6.71Q9.46 7.14 9.46 7.76L9.46 7.76L9.46 12.29L7.78 12.29ZM14.78 3.70L14.78 2.17L16.46 2.17L16.46 3.70L14.78 3.70ZM14.78 12.29L14.78 4.93L16.46 4.93L16.46 12.29L14.78 12.29ZM21.78 14.71L21.78 11.54L21.71 11.54L21.71 11.54Q21.52 11.97 21.08 12.21L21.08 12.21L21.08 12.21Q20.64 12.46 20.08 12.46L20.08 12.46L20.08 12.46Q19.04 12.46 18.42 11.50L18.42 11.50L18.42 11.50Q17.79 10.54 17.79 8.62L17.79 8.62L17.79 8.62Q17.79 6.68 18.42 5.72L18.42 5.72L18.42 5.72Q19.04 4.76 20.16 4.76L20.16 4.76L20.16 4.76Q20.69 4.76 21.13 5.03L21.13 5.03L21.13 5.03Q21.56 5.31 21.83 5.84L21.83 5.84L21.90 5.84L22.06 4.93L23.46 4.93L23.46 14.71L21.78 14.71ZM20.66 10.93L20.66 10.93Q21.25 10.93 21.52 10.41L21.52 10.41L21.52 10.41Q21.78 9.88 21.78 8.85L21.78 8.85L21.78 8.34L21.78 8.34Q21.78 7.31 21.52 6.80L21.52 6.80L21.52 6.80Q21.25 6.29 20.66 6.29L20.66 6.29L20.66 6.29Q20.08 6.29 19.81 6.80L19.81 6.80L19.81 6.80Q19.54 7.31 19.54 8.34L19.54 8.34L19.54 8.88L19.54 8.88Q19.54 9.91 19.81 10.42L19.81 10.42L19.81 10.42Q20.08 10.93 20.66 10.93L20.66 10.93ZM26.96 12.46L26.96 12.46Q26.05 12.46 25.53 11.89L25.53 11.89L25.53 11.89Q25.00 11.33 25.00 10.09L25.00 10.09L25.00 4.93L26.68 4.93L26.68 9.63L26.68 9.63Q26.68 10.33 26.92 10.63L26.92 10.63L26.92 10.63Q27.16 10.93 27.65 10.93L27.65 10.93L27.65 10.93Q28.14 10.93 28.47 10.52L28.47 10.52L28.47 10.52Q28.80 10.11 28.80 9.49L28.80 9.49L28.80 4.93L30.48 4.93L30.48 12.29L29.08 12.29L28.91 11.38L28.83 11.38L28.83 11.38Q28.50 11.86 28.04 12.16L28.04 12.16L28.04 12.16Q27.58 12.46 26.96 12.46L26.96 12.46ZM34.57 12.46L34.57 12.46Q33.12 12.46 32.40 11.52L32.40 11.52L32.40 11.52Q31.68 10.57 31.68 8.61L31.68 8.61L31.68 8.61Q31.68 4.76 34.51 4.76L34.51 4.76L34.51 4.76Q35.85 4.76 36.51 5.70L36.51 5.70L36.51 5.70Q37.17 6.64 37.17 8.61L37.17 8.61L37.17 9.03L33.43 9.03L33.43 9.03Q33.45 10.07 33.70 10.58L33.70 10.58L33.70 10.58Q33.96 11.09 34.57 11.09L34.57 11.09L34.57 11.09Q35 11.09 35.25 10.72L35.25 10.72L35.25 10.72Q35.50 10.35 35.50 9.69L35.50 9.69L37.17 9.69L37.17 9.69Q37.17 11.06 36.46 11.76L36.46 11.76L36.46 11.76Q35.74 12.46 34.57 12.46L34.57 12.46ZM33.45 7.81L35.41 7.81L35.41 7.81Q35.41 6.13 34.51 6.13L34.51 6.13L34.51 6.13Q33.99 6.13 33.74 6.56L33.74 6.56L33.74 6.56Q33.49 6.99 33.45 7.81L33.45 7.81Z"></path></g><!----><g data-v-423bf9ae="" id="4d3896da-6b60-4dc0-a77b-35bbedd8eb84" transform="matrix(1.111116706000434,0,0,1.111116706000434,-22.130567982336572,0.44394056141427285)" stroke="none" fill="white"><path d="M78.553 27.22c1.622-1.527 1.274-3.498-.771-4.378a3.778 3.778 0 0 1-1.899-5.22c1.001-1.99.001-3.724-2.224-3.851a3.778 3.778 0 0 1-3.571-4.256c.263-2.213-1.271-3.499-3.403-2.856-2.134.642-4.299-.608-4.811-2.777s-2.393-2.854-4.18-1.521a3.777 3.777 0 0 1-5.469-.965c-1.224-1.862-3.226-1.862-4.448 0a3.776 3.776 0 0 1-5.469.965c-1.785-1.333-3.667-.648-4.178 1.521a3.778 3.778 0 0 1-4.811 2.777c-2.135-.643-3.667.644-3.405 2.856a3.779 3.779 0 0 1-3.57 4.256c-2.226.127-3.227 1.86-2.224 3.851a3.778 3.778 0 0 1-1.899 5.22c-2.047.88-2.395 2.851-.772 4.378a3.777 3.777 0 0 1 0 5.555c-1.623 1.527-1.275 3.496.772 4.377 2.047.882 2.903 3.23 1.899 5.22-1.003 1.99-.002 3.723 2.224 3.852a3.776 3.776 0 0 1 3.57 4.254c-.262 2.213 1.271 3.499 3.405 2.857 2.134-.642 4.298.608 4.811 2.779.511 2.168 2.393 2.852 4.178 1.519a3.776 3.776 0 0 1 5.469.965c1.223 1.862 3.225 1.862 4.448 0a3.776 3.776 0 0 1 5.469-.965c1.787 1.333 3.668.649 4.18-1.519a3.776 3.776 0 0 1 4.811-2.778c2.133.643 3.666-.645 3.403-2.857a3.779 3.779 0 0 1 3.571-4.255c2.225-.129 3.225-1.861 2.224-3.852a3.779 3.779 0 0 1 1.899-5.22c2.047-.881 2.395-2.85.771-4.377a3.777 3.777 0 0 1 0-5.555zM50 51.436c-11.72 0-21.222-9.5-21.222-21.221 0-11.72 9.502-21.222 21.222-21.222 11.721 0 21.223 9.502 21.223 21.222S61.721 51.436 50 51.436z"></path><path d="M50 12.124c-9.99 0-18.087 8.101-18.087 18.091 0 9.991 8.097 18.09 18.087 18.09 9.988 0 18.089-8.099 18.089-18.09 0-9.99-8.101-18.091-18.089-18.091zm3.301 3.4c1.1.245 2.174.616 3.188 1.103l-.475.994a13.804 13.804 0 0 0-2.951-1.021l.238-1.076zm-3.349-.363l.004 1.101a14.188 14.188 0 0 0-3.102.356l-.247-1.073a15.112 15.112 0 0 1 3.345-.384zm-6.523 1.507l.482.991a13.955 13.955 0 0 0-2.639 1.67l-.689-.859a15.073 15.073 0 0 1 2.846-1.802zm-5.221 4.19l.862.685a14.175 14.175 0 0 0-1.657 2.646l-.992-.477a15.15 15.15 0 0 1 1.787-2.854zm-3.262 9.357c0-1.118.123-2.234.366-3.317l1.077.241a13.97 13.97 0 0 0-.341 3.076l-1.103.029.001-.029zm1.498 6.556a15.042 15.042 0 0 1-1.117-3.179l1.072-.247a13.963 13.963 0 0 0 1.039 2.944l-.994.482zm4.186 5.227a15.214 15.214 0 0 1-2.386-2.38l.86-.688a14.076 14.076 0 0 0 2.213 2.206l-.687.862zm6.038 2.9a14.89 14.89 0 0 1-3.183-1.11l.477-.992a13.88 13.88 0 0 0 2.947 1.027l-.241 1.075zm3.349.37l-.002-1.102a14.005 14.005 0 0 0 3.103-.35l.245 1.074a15.13 15.13 0 0 1-3.346.378zm.429-11.013l-5.293 3.844 2.024-6.22-5.296-3.848h6.543l2.021-6.222 2.023 6.222h6.544l-5.294 3.848 2.021 6.22-5.293-3.844zm6.096 9.521l-.479-.993a13.898 13.898 0 0 0 2.642-1.664l.688.86a15.049 15.049 0 0 1-2.851 1.797zm2.119-24.5l.685-.865a15.293 15.293 0 0 1 2.391 2.374l-.858.691a14.069 14.069 0 0 0-2.218-2.2zm3.11 20.32l-.86-.688a14.026 14.026 0 0 0 1.663-2.643l.992.479a14.94 14.94 0 0 1-1.795 2.852zm3.284-9.381c0 1.129-.125 2.256-.375 3.348l-1.074-.244c.229-1.012.347-2.056.347-3.104l1.103-.062v.062h-.001zm-.388-3.41l-1.074.251a13.707 13.707 0 0 0-1.043-2.943l.99-.482a15.03 15.03 0 0 1 1.127 3.174zM37.063 58.462c-.542-2.301-2.792-3.636-5.054-3.065L22.487 94.35l7.986-1.67 7.823-32.238c-.572-.398-1.018-1.063-1.233-1.98zM52.422 61.17c-1.331 2.03-3.513 2.03-4.847 0-.031-.048-.073-.084-.105-.131l-8.25 33.994L45.595 100l9.947-40.689a4.106 4.106 0 0 0-3.12 1.859zM41.614 60.117c-.77.574-1.551.793-2.254.717l-7.665 31.589 3.288-.688 3.26 2.539 8.295-34.181a4.098 4.098 0 0 0-4.924.024zM62.939 58.462c-.558 2.363-2.606 3.108-4.553 1.655a4.31 4.31 0 0 0-1.173-.598l-6.353 25.99L54.404 100l10.611-8.266 12.496 2.615-9.521-38.953c-2.261-.569-4.508.766-5.051 3.066z"></path></g><!----></svg>